<?xml version="1.0" encoding="UTF-8"?>
<svg width="1200px" height="750px" viewBox="0 0 1200 750" version="1.1" xmlns="http://www.w3.org/2000/svg" xmlns:xlink="http://www.w3.org/1999/xlink">
    <!-- Generator: Sketch 42 (36781) - http://www.bohemiancoding.com/sketch -->
    <title>Slice 1</title>
    <desc>Created with Sketch.</desc>
    <defs></defs>
    <g id="Page-1" stroke="none" stroke-width="1" fill="none" fill-rule="evenodd">
        <rect id="Rectangle" fill="#000000" x="0" y="0" width="1200" height="750"></rect>
        <g id="logo-white" transform="translate(106.000000, 142.000000)" fill-rule="nonzero" fill="#FFFFFF">
            <g id="Layer_1">
                <g id="Group">
                    <path d="M430.5,424.3 L126.5,424.3 L81.7,379.5 L81.7,325.4 L80.2,325.4 C89.7,325.4 97.4,317.7 97.4,308.2 C97.4,298.7 89.7,291 80.2,291 C70.7,291 63,298.7 63,308.2 C63,317.7 70.7,325.4 80.2,325.4 L78.1,325.4 L78.1,381 L125,428 L434.1,428 L434.1,406.5 L430.4,406.5 L430.4,424.3 L430.5,424.3 Z M66.6,308.2 C66.6,300.7 72.7,294.6 80.2,294.6 C87.7,294.6 93.8,300.7 93.8,308.2 C93.8,315.7 87.7,321.8 80.2,321.8 C72.7,321.8 66.6,315.7 66.6,308.2 Z" id="Shape"></path>
                    <path d="M17.6,115.9 L19.4,115.9 L19.4,63.6 L79.4,3.7 L661.2,3.7 L661.2,10.9 L664.9,10.9 L664.9,0.1 L77.8,0.1 L15.8,62.1 L15.8,115.9 L17.6,115.9 C8.1,115.9 0.4,123.6 0.4,133.1 C0.4,142.6 8.1,150.3 17.6,150.3 C27.1,150.3 34.8,142.6 34.8,133.1 C34.9,123.6 27.2,115.9 17.6,115.9 Z" id="Shape"></path>
                    <path d="M970.4,115.9 L971.7,115.9 L971.7,66 L917.3,11.6 L804.1,11.6 L804.1,22.1 L807.8,22.1 L807.8,15.3 L915.8,15.3 L968,67.5 L968,115.9 L970.4,115.9 C961.5,115.9 954.3,122.7 953.3,131.3 L933.1,131.3 L933.1,57.6 C933.1,49.7 930,42.3 924.4,36.7 C918.8,31.1 911.4,28 903.5,28 L875.1,28 C867.2,28 859.8,31.1 854.2,36.7 C849.7,41.2 846.8,47 845.8,53.2 L839.5,43.8 C837.7,41 835.4,38.5 832.1,35.6 C826.2,30.6 818.8,27.9 810.7,27.9 L788.2,27.9 C780.3,27.9 772.9,31 767.3,36.6 C761.7,42.2 758.6,49.6 758.6,57.5 L758.6,107.3 L739,50.8 C737.3,46.1 734.5,41.8 730.7,37.8 C724.7,31.5 716.3,28.1 706.9,28.1 L671.8,28.1 C668.7,28.1 665.6,28.5 662.8,29.3 L662.8,33 C665.6,32.2 668.7,31.7 671.8,31.7 L707,31.7 C715.3,31.7 722.9,34.8 728.1,40.3 C731.5,43.9 734,47.8 735.6,52 L758.7,118.9 C759,119.7 759.8,120.3 760.7,120.1 C761.6,120 762.2,119.2 762.2,118.3 L762.2,57.6 C762.2,50.7 764.9,44.2 769.8,39.3 C774.7,34.4 781.2,31.7 788.1,31.7 L810.6,31.7 C817.9,31.7 824.5,34 829.6,38.5 C832.7,41.1 834.7,43.4 836.3,45.9 L845.6,59.8 C846,60.5 846.9,60.8 847.6,60.5 C848.4,60.3 848.9,59.6 848.9,58.8 L848.9,57.7 C848.9,50.8 851.6,44.3 856.5,39.4 C861.4,34.5 867.9,31.8 874.8,31.8 L903.2,31.8 C910.1,31.8 916.6,34.5 921.5,39.4 C926.4,44.3 929.1,50.8 929.1,57.7 L929.1,135 L930.9,135 L930.9,135 L952.9,135 C953.8,143.6 961.1,150.4 969.9,150.4 C979.4,150.4 987.1,142.7 987.1,133.2 C987.6,123.6 979.9,115.9 970.4,115.9 Z M970.4,146.7 C962.9,146.7 956.8,140.6 956.8,133.1 C956.8,125.6 962.9,119.5 970.4,119.5 C977.9,119.5 984,125.6 984,133.1 C983.9,140.6 977.8,146.7 970.4,146.7 Z" id="Shape"></path>
                    <path d="M916.5,291 L918.3,291 L918.3,223.6 L902.8,223.6 L900.9,223.6 L881,223.6 C873.7,223.6 867.1,221.2 861.9,216.8 C858.8,214.2 856.8,211.9 855.2,209.4 L845.9,195.5 C845.5,194.8 844.6,194.5 843.9,194.8 C843.1,195 842.6,195.7 842.6,196.5 L842.6,197.6 C842.6,202.5 841.2,207.3 838.6,211.4 C838.3,211.8 838.3,212.4 838.4,212.8 C838.5,213.3 838.9,213.7 839.3,213.9 C843.3,216 847.1,218.4 850.5,220.9 C858.1,226.6 864.3,233.1 868.8,240.2 C873.9,248.3 876.6,256.6 876.9,264.8 L876.9,265.5 C876.9,272.1 874.3,278.4 869.6,283.1 C868.5,284.2 867.3,285.2 866,286.1 C865.6,286.4 865.3,286.9 865.2,287.4 C865.1,287.9 865.3,288.5 865.7,288.8 C870.6,294 874.4,299.9 876.9,306.6 C879.8,313.9 881.2,322.3 881.2,331.6 C881.2,342.5 878.6,352.5 873.5,361.3 C868.7,369.7 861.9,376.9 853.5,382.7 C845.6,388.1 836.4,392.2 826,395 C816.2,397.6 805.5,398.9 794.1,398.9 C782.2,398.9 771.1,397.3 761.1,394 C756.4,392.5 752,390.6 747.7,388.6 L747.7,392.7 C751.6,394.5 755.6,396.2 759.9,397.5 C770.3,400.8 781.8,402.5 794.1,402.5 C805.8,402.5 816.9,401.1 827,398.5 C837.8,395.6 847.4,391.3 855.6,385.7 C864.5,379.6 871.6,372 876.7,363.1 C882.1,353.7 884.9,343.1 884.9,331.5 C884.9,321.8 883.4,312.9 880.3,305.2 C877.8,298.8 874.2,292.9 869.7,287.8 C870.5,287.1 871.4,286.4 872.1,285.6 C877.5,280.2 880.5,273 880.5,265.4 L880.5,264.7 C880.2,255.8 877.3,246.9 871.9,238.3 C867.2,230.8 860.7,223.9 852.7,218 C849.6,215.7 846.3,213.6 842.7,211.6 C844.3,208.6 845.4,205.4 845.9,202 L852.2,211.4 C853.9,214.1 856.3,216.7 859.6,219.5 C865.5,224.5 872.9,227.2 881,227.2 L900.9,227.2 L902.9,227.2 L914.6,227.2 L914.6,291 L916.5,291 C907,291 899.3,298.7 899.3,308.2 C899.3,317.1 906.1,324.3 914.7,325.2 L914.7,356.8 L860.3,411.2 L664.8,411.2 L664.8,386.2 L661.1,386.2 L661.1,414.8 L861.8,414.8 L918.3,358.3 L918.3,325.2 C926.9,324.3 933.7,317 933.7,308.2 C933.7,298.7 926,291 916.5,291 Z" id="Shape"></path>
                    <path d="M225.6,375 C226.8,376.2 228.1,376.7 229.7,376.7 L258.1,376.7 C259.7,376.7 261.1,376.1 262.2,375 C263.4,373.8 263.9,372.5 263.9,370.9 L263.9,230.9 C263.9,229.3 263.3,227.9 262.2,226.8 C261,225.6 259.7,225.1 258.1,225.1 L229.7,225.1 C228.1,225.1 226.7,225.7 225.6,226.8 C224.4,228 223.9,229.3 223.9,230.9 L223.9,283.1 L175.8,283.1 L175.8,230.9 C175.8,229.3 175.2,227.9 174.1,226.8 C172.9,225.6 171.6,225.1 170,225.1 L141.6,225.1 C140,225.1 138.6,225.7 137.5,226.8 C136.4,227.9 135.8,229.3 135.8,230.9 L135.8,370.9 C135.8,372.6 136.4,374 137.5,375.1 C138.7,376.2 140,376.7 141.6,376.7 L170,376.7 C171.6,376.7 173,376.1 174.1,375 C175.3,373.8 175.8,372.5 175.8,370.9 L175.8,317.8 L223.9,317.8 L223.9,370.9 C223.8,372.5 224.4,373.9 225.6,375 Z" id="Shape"></path>
                    <path d="M286.3,376.7 L313.6,376.7 C316.5,376.7 318.5,376.1 319.8,374.9 C321,373.7 321.8,372.5 322.1,371.3 L328.2,353.3 L385.9,353.3 L392,371.3 C392.3,372.5 393,373.6 394.3,374.9 C395.5,376.1 397.6,376.7 400.5,376.7 L427.8,376.7 C429.1,376.7 430.2,376.2 431.2,375.3 C432.1,374.4 432.6,373.2 432.6,371.9 C432.6,371.2 432.3,370.1 431.7,368.6 L384.5,232.1 C383.9,230.5 382.9,228.9 381.4,227.3 C379.9,225.7 377.7,224.9 374.8,224.9 L339.7,224.9 C336.8,224.9 334.6,225.7 333.1,227.3 C331.6,228.9 330.5,230.5 330,232.1 L282.8,368.6 C282.2,370 281.9,371.1 281.9,371.9 C281.9,373.2 282.4,374.3 283.3,375.3 C283.8,376.3 285,376.7 286.3,376.7 Z M356.9,267.7 L374.5,319.7 L339.4,319.7 L356.9,267.7 Z" id="Shape"></path>
                    <path d="M481.1,282.7 C481.4,279.4 482,276.2 483.1,273.2 C484.1,270.2 485.7,267.5 487.9,265.2 C490.1,262.9 492.8,261 496.1,259.7 C499.4,258.3 503.5,257.6 508.5,257.6 C513.4,257.6 517.5,258.2 520.6,259.3 C523.8,260.5 526.4,261.9 528.4,263.5 C530.4,265.2 532,267 533.1,269 C534.2,271 535,272.9 535.6,274.6 C536.3,276.9 537.1,278.5 538,279.5 C538.9,280.4 540.5,280.9 543,280.9 L571.4,280.9 C572.7,280.9 573.8,280.4 574.8,279.5 C575.7,278.6 576.2,277.4 576.2,276.1 C576.1,268.7 574.2,261.8 570.8,255.3 C567.3,248.8 562.6,243.2 556.5,238.4 C550.4,233.6 543.3,229.8 535.2,227 C527,224.2 518.2,222.8 508.6,222.8 C498.2,222.8 488.9,224.4 480.6,227.5 C472.4,230.6 465.4,234.8 459.7,240.2 C454,245.5 449.5,251.8 446.4,258.9 C443.2,266.1 441.5,273.6 441.2,281.6 C440.9,287.8 440.8,294.3 440.8,301.1 C440.8,307.9 440.9,314.2 441.2,320.2 C441.6,328.1 443.4,335.7 446.5,342.9 C449.6,350.1 454,356.3 459.8,361.6 C465.6,367 472.6,371.2 480.7,374.3 C488.9,377.4 498.1,379 508.6,379 C518.1,379 527,377.6 535.2,374.8 C543.4,372 550.5,368.2 556.5,363.4 C562.6,358.6 567.3,353 570.8,346.5 C574.3,340 576.1,333.1 576.2,325.7 C576.2,324.4 575.7,323.3 574.8,322.3 C573.9,321.4 572.7,320.9 571.4,320.9 L543,320.9 C540.5,320.9 538.9,321.4 538,322.3 C537.1,323.2 536.3,324.9 535.6,327.2 C535,328.9 534.2,330.8 533.1,332.8 C532,334.8 530.5,336.7 528.4,338.3 C526.4,340 523.8,341.4 520.6,342.5 C517.4,343.7 513.4,344.2 508.5,344.2 C503.6,344.2 499.5,343.5 496.1,342.1 C492.8,340.7 490,338.9 487.9,336.6 C485.7,334.3 484.1,331.6 483.1,328.6 C482.1,325.6 481.4,322.4 481.1,319.1 C481,317.2 480.8,314.6 480.8,311.2 C480.7,307.8 480.7,304.3 480.7,300.8 C480.7,297.3 480.7,293.8 480.8,290.5 C480.8,287.1 481,284.6 481.1,282.7 Z" id="Shape"></path>
                    <path d="M604.2,225 C602.6,225 601.2,225.6 600.1,226.7 C599,227.8 598.4,229.2 598.4,230.8 L598.4,370.8 C598.4,372.4 599,373.8 600.1,374.9 C601.3,376.1 602.6,376.6 604.2,376.6 L632.6,376.6 C634.2,376.6 635.6,376 636.7,374.9 C637.9,373.7 638.4,372.4 638.4,370.8 L638.4,320.1 L679.4,371.7 C680.7,373.3 682,374.5 683.3,375.4 C684.6,376.3 686.3,376.7 688.3,376.7 L722.8,376.7 C724.1,376.7 725.2,376.2 726.2,375.3 C727.1,374.4 727.6,373.2 727.6,371.9 C727.6,370.9 727.4,370.1 727,369.5 L669.8,297.5 L723.3,232 C723.7,231.4 723.9,230.6 723.9,229.6 C723.9,228.3 723.4,227.2 722.5,226.2 C721.6,225.3 720.4,224.8 719.1,224.8 L685.3,224.8 C682.6,224.8 680.6,225.4 679.4,226.5 C678.2,227.6 677.3,228.7 676.6,229.5 L638.4,276.3 L638.4,230.6 C638.4,229 637.8,227.6 636.7,226.5 C635.5,225.3 634.2,224.8 632.6,224.8 L604.2,224.8 L604.2,225 Z" id="Shape"></path>
                    <path d="M748.1,236.9 C742.8,241.2 738.7,246.2 735.9,251.9 C733.1,257.5 731.7,263.5 731.7,269.7 C731.7,282.1 735.1,292.1 742,299.5 C748.9,306.9 759.7,312.3 774.6,315.4 C782.5,317.1 789.4,318.6 795.3,319.7 C801.2,320.9 806,322 809.7,323.3 C813.5,324.5 816.3,325.9 818.2,327.3 C820.1,328.7 821,330.6 821,332.7 C821,337 818.4,340 813.3,341.7 C808.2,343.4 801.8,344.2 794.1,344.2 C789.8,344.2 786.1,343.7 783.2,342.7 C780.2,341.7 777.8,340.5 775.8,339.1 C773.9,337.7 772.3,336.4 771.1,335.1 C769.9,333.8 769.1,332.9 768.5,332.3 C767.3,331.3 766.2,330.5 765,330 C763.8,329.5 762.3,329.2 760.2,329.2 L731.8,329.2 C730.6,329.2 729.6,329.7 728.7,330.6 C727.8,331.5 727.3,332.7 727.3,334 C727.4,339.5 729.2,344.9 732.5,350.3 C735.8,355.6 740.4,360.5 746.3,364.7 C752.2,369 759.1,372.4 767.2,375 C775.3,377.6 784.2,378.9 794.1,378.9 C803.8,378.9 812.7,377.8 820.9,375.6 C829.1,373.4 836.1,370.3 842.1,366.2 C848.1,362.1 852.8,357.1 856.1,351.4 C859.4,345.6 861.1,339 861.1,331.7 C861.1,324.9 860.1,319 858.2,314 C856.2,309 853.3,304.7 849.3,301 C845.3,297.3 840.4,294.2 834.5,291.8 C828.6,289.3 821.6,287.3 813.7,285.7 C805.8,284.1 799.1,282.7 793.8,281.6 C788.5,280.4 784.2,279.3 780.9,278 C777.6,276.8 775.3,275.4 774,274 C772.6,272.6 771.9,270.7 771.9,268.6 C771.9,266.4 772.5,264.6 773.7,263.2 C774.9,261.8 776.5,260.6 778.5,259.8 C780.4,259 782.7,258.4 785.2,258.1 C787.7,257.7 790.4,257.6 793.1,257.6 C796.9,257.6 800,258 802.6,258.8 C805.2,259.6 807.4,260.5 809.1,261.6 C810.8,262.7 812.2,263.7 813.1,264.7 C814,265.7 814.7,266.4 815.2,266.9 C816.5,268.1 817.8,268.9 819,269.5 C820.2,270.1 821.9,270.4 823.9,270.4 L852.3,270.4 C853.5,270.4 854.5,269.9 855.4,269 C856.3,268.1 856.8,266.9 856.8,265.6 C856.7,261 855,256.1 851.8,251.1 C848.6,246 844.2,241.4 838.6,237.2 C833,233 826.3,229.6 818.6,226.9 C810.9,224.2 802.4,222.9 793.1,222.9 C783.7,222.9 775.2,224.2 767.6,226.7 C759.9,229.2 753.5,232.6 748.1,236.9 Z" id="Shape"></path>
                    <path d="M113.5,201.8 C114.7,203 116,203.5 117.6,203.5 L146,203.5 C147.6,203.5 149,202.9 150.1,201.8 C151.3,200.6 151.8,199.3 151.8,197.7 L151.8,86.5 L190,86.5 C191.6,86.5 193,85.9 194.1,84.8 C195.3,83.6 195.8,82.3 195.8,80.7 L195.8,57.7 C195.8,56.1 195.2,54.7 194.1,53.6 C192.9,52.4 191.6,51.9 190,51.9 L73.6,51.9 C72,51.9 70.6,52.5 69.5,53.6 C68.4,54.7 67.8,56.1 67.8,57.7 L67.8,80.7 C67.8,82.3 68.4,83.7 69.5,84.8 C70.6,85.9 72,86.5 73.6,86.5 L111.7,86.5 L111.7,197.7 C111.8,199.2 112.3,200.6 113.5,201.8 Z" id="Shape"></path>
                    <path d="M481.9,202.1 C482.8,201.2 483.3,200 483.3,198.7 C483.3,198 483.1,197.2 482.7,196.3 L455.8,144.7 C464,140.9 470.4,135.5 474.9,128.3 C479.4,121.2 481.6,112.2 481.6,101.3 C481.6,92.9 480.2,85.6 477.4,79.3 C474.6,73 470.5,67.8 465.3,63.8 C460,59.8 453.6,56.7 446.1,54.7 C438.6,52.7 430.1,51.7 420.5,51.7 L361.8,51.7 C360.2,51.7 358.8,52.3 357.7,53.4 C356.6,54.5 356,55.9 356,57.5 L356,197.5 C356,199.1 356.6,200.5 357.7,201.6 C358.9,202.8 360.2,203.3 361.8,203.3 L390.2,203.3 C391.8,203.3 393.2,202.7 394.3,201.6 C395.5,200.4 396,199.1 396,197.5 L396,151.1 L415.9,151.1 L440,197.5 C440.7,198.8 441.7,200.1 442.9,201.4 C444.1,202.7 446.2,203.4 449.1,203.4 L478.6,203.4 C479.8,203.5 480.9,203 481.9,202.1 Z M435.5,114 C431.5,116.3 426.5,117.5 420.4,117.5 L395.9,117.5 L395.9,85.4 L420.4,85.4 C426.5,85.4 431.5,86.6 435.5,88.9 C439.5,91.2 441.5,95.4 441.5,101.5 C441.4,107.5 439.5,111.7 435.5,114 Z" id="Shape"></path>
                    <path d="M540.1,201.8 C541.3,203 542.6,203.5 544.2,203.5 L572.6,203.5 C574.2,203.5 575.6,202.9 576.7,201.8 C577.9,200.6 578.4,199.3 578.4,197.7 L578.4,86.5 L616.5,86.5 C618.1,86.5 619.5,85.9 620.6,84.8 C621.8,83.6 622.3,82.3 622.3,80.7 L622.3,57.7 C622.3,56.1 621.7,54.7 620.6,53.6 C619.4,52.4 618.1,51.9 616.5,51.9 L500.2,51.9 C498.6,51.9 497.2,52.5 496.1,53.6 C495,54.7 494.4,56.1 494.4,57.7 L494.4,80.7 C494.4,82.3 495,83.7 496.1,84.8 C497.2,85.9 498.6,86.5 500.2,86.5 L538.3,86.5 L538.3,197.7 C538.3,199.2 538.9,200.6 540.1,201.8 Z" id="Shape"></path>
                    <path d="M716.7,58.9 C716.1,57.3 715.1,55.7 713.6,54.1 C712.1,52.5 709.9,51.7 707,51.7 L671.9,51.7 C669,51.7 666.8,52.5 665.3,54.1 C663.8,55.7 662.7,57.3 662.2,58.9 L615,195.4 C614.4,196.8 614.1,197.9 614.1,198.7 C614.1,200 614.6,201.1 615.5,202.1 C616.4,203 617.6,203.5 618.9,203.5 L646,203.5 C648.9,203.5 650.9,202.9 652.2,201.7 C653.4,200.5 654.2,199.3 654.5,198.1 L660.6,180.1 L718.3,180.1 L724.4,198.1 C724.7,199.3 725.4,200.4 726.7,201.7 C727.9,202.9 730,203.5 732.9,203.5 L760.2,203.5 C761.5,203.5 762.6,203 763.6,202.1 C764.5,201.2 765,200 765,198.7 C765,198 764.7,196.9 764.1,195.4 L716.7,58.9 Z M671.8,146.5 L689.4,94.5 L707,146.5 L671.8,146.5 Z" id="Shape"></path>
                    <path d="M816.7,53.7 C815.2,52.4 813.2,51.8 810.7,51.8 L788.2,51.8 C786.6,51.8 785.2,52.4 784.1,53.5 C783,54.6 782.4,56 782.4,57.6 L782.4,197.6 C782.4,199.2 783,200.6 784.1,201.7 C785.3,202.9 786.6,203.4 788.2,203.4 L816.6,203.4 C818.2,203.4 819.6,202.8 820.7,201.7 C821.9,200.5 822.4,199.2 822.4,197.6 L822.4,124.3 L872,198.4 C872.4,199.1 873.4,200.1 874.9,201.4 C876.4,202.7 878.4,203.4 880.9,203.4 L903.4,203.4 C905,203.4 906.4,202.8 907.5,201.7 C908.7,200.5 909.2,199.2 909.2,197.6 L909.2,57.6 C909.2,56 908.6,54.6 907.5,53.5 C906.4,52.4 905,51.8 903.4,51.8 L875,51.8 C873.4,51.8 872,52.4 870.9,53.5 C869.8,54.6 869.2,56 869.2,57.6 L869.2,130.9 L819.6,56.8 C819.2,56 818.2,55 816.7,53.7 Z" id="Shape"></path>
                    <path d="M187.4,198.7 C187.4,200 187.9,201.1 188.8,202.1 C189.7,203 190.9,203.5 192.2,203.5 L219.5,203.5 C222.4,203.5 224.4,202.9 225.7,201.7 C226.9,200.5 227.7,199.3 228,198.1 L234.1,180.1 L291.8,180.1 L297.9,198.1 C298.2,199.3 298.9,200.4 300.2,201.7 C301.4,202.9 303.5,203.5 306.4,203.5 L333.7,203.5 C335,203.5 336.1,203 337.1,202.1 C338,201.2 338.5,200 338.5,198.7 C338.5,198 338.2,196.9 337.6,195.4 L290.2,58.9 C289.6,57.3 288.6,55.7 287.1,54.1 C285.6,52.5 283.4,51.7 280.5,51.7 L245.4,51.7 C242.5,51.7 240.3,52.5 238.8,54.1 C237.3,55.7 236.2,57.3 235.7,58.9 L188.5,195.4 C187.7,196.9 187.4,198 187.4,198.7 Z M262.8,94.5 L280.4,146.5 L245.3,146.5 L262.8,94.5 Z" id="Shape"></path>
                    <path d="M403.2,210.8 C406.7,207.3 408.7,202.6 408.7,197.6 L408.7,165.2 L423.9,194.5 L423.9,186.6 L410.8,161.3 C410.5,160.7 409.9,160.3 409.2,160.3 L406.9,160.3 C405.9,160.3 405.1,161.1 405.1,162.1 L405.1,197.5 C405.1,201.5 403.5,205.2 400.7,208.1 C397.8,211 394.2,212.5 390.1,212.5 L379,212.5 C378.1,212.5 377.3,213.2 377.2,214.2 C377.1,215.1 377.7,216 378.7,216.2 C383.2,217.1 386.1,219.3 387.8,221 C390.2,223.5 391.9,226.2 392.9,228.9 L395.5,236.4 L399.4,236.4 L396.4,227.7 C395.2,224.5 393.2,221.4 390.5,218.5 C389.8,217.8 389,217 387.9,216.2 L390.2,216.2 C395.1,216.3 399.7,214.4 403.2,210.8 Z" id="Shape"></path>
                    <path d="M345.2,185.3 C346.1,185.2 346.7,184.4 346.7,183.5 L346.7,109.5 L343,109.5 L343,172.6 L321.2,109.5 L317.3,109.5 L343.1,184.1 C343.4,184.9 344.2,185.4 345.2,185.3 Z" id="Shape"></path>
                    <path d="M835.3,197.6 L835.3,166.4 L861.4,205.3 C862.6,207.2 864.2,208.9 866.8,211.1 C869.5,213.4 874.1,216.1 881.1,216.1 L903.6,216.1 C908.6,216.1 913.2,214.2 916.7,210.6 C920.2,207.1 922.2,202.4 922.2,197.4 L922.2,75.5 L918.5,75.5 L918.5,197.6 C918.5,201.6 916.9,205.3 914.1,208.2 C911.2,211.1 907.6,212.6 903.5,212.6 L881,212.6 C875.2,212.6 871.3,210.3 869.1,208.4 C866.8,206.4 865.4,204.9 864.4,203.4 L834.9,159.4 C834.5,158.7 833.6,158.4 832.9,158.7 C832.1,158.9 831.6,159.6 831.6,160.4 L831.6,197.6 C831.6,201.6 830,205.3 827.2,208.2 C824.3,211.1 820.7,212.6 816.6,212.6 L815.1,212.6 C814.2,212.6 813.4,213.3 813.3,214.2 C813.2,215.1 813.8,216 814.7,216.2 C817,216.8 819.2,217.4 821.4,218.2 C830,221.2 837.6,225.1 843.9,229.8 C850.4,234.7 855.6,240.2 859.4,246.1 C863.4,252.5 865.6,259 865.8,265.1 C865.8,269.1 864.4,272.6 861.7,275.3 C859.1,277.9 855.7,279.4 852.1,279.4 L837.6,279.4 C836.7,279.4 836,280 835.8,280.9 C835.6,281.8 836.1,282.6 836.9,282.9 L837.8,283.3 C844.7,286.2 850.6,289.8 855.4,294.2 C856.1,294.9 856.8,295.6 857.5,296.3 L862.4,296.3 C861,294.6 859.6,293 857.9,291.5 C854.4,288.3 850.4,285.5 845.9,283 L852.1,283 C856.6,283 861,281.2 864.3,277.9 C867.7,274.5 869.5,270.1 869.5,265.1 C869.3,258.2 866.9,251.2 862.6,244.2 C858.6,237.8 853.1,232 846.2,226.9 C839.7,222.1 832.1,218.1 823.5,215 C825.8,214.1 828,212.7 829.9,210.8 C833.3,207.3 835.3,202.6 835.3,197.6 Z" id="Shape"></path>
                    <path d="M722.8,45.3 C720,42.4 715,39 706.9,39 L671.8,39 C663.7,39 658.7,42.5 655.9,45.4 C653.1,48.3 651.2,51.4 649.9,54.8 L640.3,82.6 L644.2,82.6 L653.4,56 C654.5,53.1 656.2,50.4 658.6,47.9 C660.9,45.5 665,42.7 671.8,42.7 L707,42.7 C713.8,42.7 718,45.5 720.2,47.9 C722.6,50.4 724.3,53.1 725.3,55.8 L734.6,82.6 L737.1,82.6 L737.1,78.6 L728.8,54.6 C727.5,51.3 725.5,48.2 722.8,45.3 Z" id="Shape"></path>
                    <path d="M735.6,216.3 L737,212.6 L732.7,212.6 C727.3,212.6 723,211.1 720.1,208.1 C717.8,205.8 716.3,203.4 715.5,200.7 L712,190.5 C711.8,189.8 711.1,189.3 710.3,189.3 L668.4,189.3 C667.6,189.3 666.9,189.8 666.7,190.5 L663.2,200.8 C662.5,203.4 660.9,205.9 658.7,208.1 C655.7,211.1 651.4,212.6 646,212.6 L636.3,212.6 C635.4,212.6 634.6,213.3 634.5,214.2 C634.4,215.1 635,216 635.9,216.2 C638.6,216.8 641,218.2 643.1,220.2 C646,223.1 647.5,226.8 647.5,230.8 L647.5,245.7 C647.5,246.5 648,247.2 648.7,247.4 C648.9,247.5 649.1,247.5 649.3,247.5 C649.8,247.5 650.4,247.3 650.7,246.8 L669.4,223.9 C670.3,222.8 671.5,221.6 672.8,220.2 C675.7,217.3 679.9,215.8 685.1,215.8 L718.9,215.8 C722.6,215.8 726.1,217.2 728.7,219.9 C730.2,221.4 731.3,223.2 732,225.1 L733.8,220.5 C733.1,219.4 732.3,218.3 731.3,217.3 C730.9,216.9 730.4,216.5 730,216.1 C730.8,216.2 731.7,216.2 732.6,216.2 L735.6,216.2 L735.6,216.3 Z M719.1,212.2 L685.3,212.2 C679,212.2 674,214 670.4,217.7 C668.9,219.2 667.7,220.5 666.7,221.7 L651.3,240.6 L651.3,230.8 C651.3,225.8 649.4,221.2 645.8,217.6 C645.3,217.1 644.8,216.6 644.2,216.2 L646,216.2 C652.4,216.2 657.5,214.3 661.2,210.6 C663.9,207.9 665.7,204.9 666.6,201.8 L669.6,192.8 L709,192.8 L712,201.7 C712.9,204.9 714.8,207.9 717.5,210.6 C718,211.2 718.6,211.7 719.2,212.1 C719.2,212.2 719.1,212.2 719.1,212.2 Z" id="Shape"></path>
                    <path d="M729.3,244.9 C729.8,244.1 729.5,243 728.8,242.5 C728,242 726.9,242.1 726.3,242.8 L682.3,296.5 C681.8,297.2 681.7,298.1 682.3,298.8 L715.4,340.4 C715.8,340.8 716.3,341.1 716.8,341.1 C717,341.1 717.3,341.1 717.5,340.9 C718.3,340.6 718.7,339.8 718.6,338.9 C718.4,337.3 718.2,335.7 718.2,334.2 C718.2,330.3 719.6,326.8 722.3,324.1 C724.9,321.5 728.4,320 731.9,320 L737,320 L737,316.3 L731.9,316.3 C727.4,316.3 723,318.1 719.7,321.5 C716.5,324.7 714.8,328.8 714.6,333.4 L686.1,297.6 L720.9,255 C719.5,259.7 718.9,264.5 718.9,269.5 C718.9,285.2 723.5,298.1 732.6,308 C734,309.5 735.5,310.9 737.1,312.3 L737.1,307.3 C736.5,306.7 735.9,306.1 735.3,305.5 C726.9,296.4 722.6,284.3 722.6,269.5 C722.6,261.9 724.3,254.5 727.8,247.6 C728.2,246.8 728.7,245.9 729.3,244.9 Z" id="Shape"></path>
                    <path d="M860.2,94.8 L860.2,75.5 L856.5,75.5 L856.5,88.8 L847.6,75.5 L843.2,75.5 L856.8,95.8 C857.2,96.5 858.1,96.8 858.8,96.5 C859.6,96.3 860.2,95.6 860.2,94.8 Z" id="Shape"></path>
                    <path d="M631.6,57.6 L631.6,80.6 C631.6,81.3 631.5,81.9 631.4,82.5 L635.1,82.5 C635.2,81.9 635.3,81.2 635.3,80.6 L635.3,57.6 C635.3,52.6 633.4,48 629.8,44.4 C626.2,40.8 621.7,38.9 616.7,38.9 L500.2,38.9 C495.2,38.9 490.6,40.8 487,44.4 C483.4,48 481.5,52.5 481.5,57.6 L481.5,62 C479,58.9 476.1,56.1 472.9,53.7 C466.3,48.7 458.4,44.9 449.3,42.4 C440.7,40.1 431,38.9 420.4,38.9 L361.7,38.9 C356.7,38.9 352.1,40.8 348.5,44.4 C344.9,48 343,52.5 343,57.6 L343,82.5 L346.7,82.5 L346.7,57.6 C346.7,53.6 348.2,49.9 351.1,47 C354,44.1 357.6,42.6 361.7,42.6 L420.4,42.6 C430.7,42.6 440.1,43.7 448.3,45.9 C456.9,48.2 464.5,51.8 470.7,56.6 C475.1,60 478.8,64 481.8,68.6 C482.2,69.3 483.1,69.6 483.9,69.4 C484.7,69.2 485.2,68.5 485.2,67.6 L485.2,57.6 C485.2,53.6 486.7,49.9 489.6,47 C492.5,44.1 496.1,42.6 500.2,42.6 L616.6,42.6 C620.6,42.6 624.3,44.1 627.2,47 C630,49.9 631.6,53.6 631.6,57.6 Z" id="Shape"></path>
                    <path d="M771.7,185.3 C772.6,185.2 773.2,184.4 773.2,183.5 L773.2,75.5 L769.6,75.5 L769.6,183.8 L769.7,184.1 C770,184.9 770.8,185.4 771.7,185.3 Z" id="Shape"></path>
                    <path d="M676.2,386.1 C679.6,388.4 683.7,389.6 688.3,389.6 L722.8,389.6 C727.5,389.6 731.9,387.8 735.2,384.4 C735.9,383.7 736.5,383 737,382.2 L737,371.6 C736.8,371.9 736.7,372.2 736.6,372.6 C736.5,376.1 735,379.4 732.5,381.9 C729.9,384.5 726.4,386 722.7,386 L688.2,386 C684.3,386 681,385 678.1,383.2 C676,381.8 674.1,380 672.2,377.7 L650.7,350.6 C650.2,350 649.4,349.7 648.7,350 C648,350.3 647.5,350.9 647.5,351.7 L647.5,371 C647.5,375 645.9,378.7 643.1,381.6 C640.2,384.5 636.6,386 632.5,386 L604.1,386 C600.1,386 596.4,384.5 593.5,381.6 C590.7,378.8 589.1,375 589.1,371 L589.1,231 C589.1,227 590.6,223.3 593.5,220.4 C596.4,217.5 600,216 604.1,216 L615,216 C615.9,216 616.7,215.3 616.8,214.4 C616.9,213.5 616.3,212.6 615.4,212.4 C612.9,211.8 610.6,210.5 608.7,208.6 C606.1,206 604.6,202.5 604.6,198.8 C604.6,196.9 605.1,194.9 606,192.3 L624.2,139.8 L620.3,139.8 L602.9,191 C601.8,193.9 601.2,196.4 601.2,198.7 C601.2,203.4 603,207.8 606.3,211.1 C606.7,211.5 607.1,211.9 607.5,212.2 L604.2,212.2 C599.2,212.2 594.6,214.1 591,217.7 C587.4,221.3 585.5,225.8 585.5,230.9 L585.5,257.7 C584.5,254.9 583.3,252.1 581.8,249.4 C577.5,241.4 571.6,234.3 564.1,228.5 C557.8,223.6 550.5,219.5 542.4,216.3 C542.9,216.3 543.5,216.4 544,216.4 L572.4,216.4 C577.4,216.4 582,214.5 585.5,210.9 C589,207.4 591,202.7 591,197.7 L591,139.9 L587.3,139.9 L587.3,197.7 C587.3,201.7 585.7,205.4 582.9,208.3 C580.1,211.1 576.3,212.7 572.3,212.7 L543.9,212.7 C539.9,212.7 536.2,211.2 533.3,208.3 C530.5,205.5 528.9,201.7 528.9,197.7 L528.9,139.9 L525.2,139.9 L525.2,197.7 C525.2,202.7 527.1,207.3 530.7,210.8 C531.7,211.8 532.9,212.7 534,213.5 C525.9,211.2 517.2,210.1 508.1,210.1 C501.8,210.1 495.8,210.6 490.1,211.6 C490.3,211.5 490.4,211.3 490.6,211.1 C493.9,207.8 495.8,203.4 495.8,198.7 C495.8,195.9 495.1,193.2 493.7,190.4 L472.4,149.5 C476.1,146.7 479.3,143.4 482.1,139.8 L477.3,139.8 C474.8,142.6 472,145.2 468.9,147.5 C468.2,148 467.9,149 468.4,149.8 L490.4,192.1 C491.5,194.4 492.1,196.6 492.1,198.7 C492.1,202.4 490.6,205.9 488,208.5 C485.4,211.1 481.9,212.6 478.2,212.6 L458.2,212.6 L458.2,216.3 L474,216.3 C468.4,218.6 463.2,221.4 458.5,224.7 L458.5,229.1 C464,225 470.2,221.6 477.2,219 C486.4,215.5 496.9,213.8 508.4,213.8 C518.9,213.8 528.8,215.4 537.9,218.5 C547,221.6 555.1,226 561.9,231.3 C568.9,236.8 574.6,243.5 578.6,251.1 C582.7,258.9 584.9,267.2 585.1,276 C585.1,279.9 583.7,283.4 581,286 C578.4,288.6 574.9,290.1 571.2,290.1 L542.8,290.1 C537.7,290.1 533.8,288.6 531.1,285.7 C529.3,283.7 527.9,281.1 526.7,277.3 C526.3,276.2 525.7,274.8 524.9,273.3 C524.4,272.3 523.6,271.4 522.5,270.5 C521.7,269.8 520.1,268.8 517.4,267.8 C515.9,267.3 513.2,266.6 508.4,266.6 C503.8,266.6 501.1,267.3 499.5,268 C497.4,268.9 495.7,270 494.4,271.3 C493.1,272.6 492.2,274.2 491.6,275.9 C490.8,278.3 490.3,280.8 490.1,283.4 C490,285.1 489.9,287.5 489.8,290.6 C489.7,293.9 489.7,297.2 489.7,300.7 C489.7,304.2 489.7,307.6 489.8,310.9 C489.9,314.1 490,316.6 490.1,318.3 C490.3,320.8 490.8,323.3 491.6,325.6 C492.2,327.4 493.1,328.9 494.4,330.3 C495.7,331.7 497.3,332.8 499.5,333.6 C501,334.2 503.8,335 508.4,335 C513.2,335 515.9,334.4 517.4,333.8 C520.1,332.8 521.7,331.8 522.5,331.1 C523.6,330.2 524.4,329.3 524.9,328.3 C525.7,326.7 526.4,325.3 526.8,324 C527.9,320.5 529.3,317.8 531.1,315.9 C533.8,313 537.7,311.5 542.8,311.5 L571.2,311.5 C574.9,311.5 578.4,312.9 581,315.6 C583.6,318.3 585.1,321.7 585.1,325.4 C584.9,334.3 582.7,342.8 578.6,350.5 C574.5,358.1 568.9,364.8 561.9,370.3 C555.1,375.7 547,380 537.9,383.1 C528.8,386.2 518.9,387.8 508.4,387.8 C496.9,387.8 486.5,386 477.3,382.5 C470.3,379.8 464,376.4 458.5,372.3 L458.5,376.7 C463.8,380.4 469.6,383.5 476,385.9 C485.6,389.5 496.5,391.4 508.4,391.4 C519.3,391.4 529.7,389.7 539.1,386.5 C548.6,383.2 557,378.7 564.2,373.1 C571.6,367.2 577.6,360.2 581.9,352.2 C583.3,349.5 584.6,346.7 585.6,343.8 L585.6,370.6 C585.6,375.6 587.5,380.2 591.1,383.7 C594.7,387.3 599.2,389.2 604.3,389.2 L632.7,389.2 C637.7,389.2 642.3,387.3 645.9,383.7 C649.4,380.2 651.4,375.5 651.4,370.5 L651.4,356.5 L669.7,379.5 C671.6,382.4 673.9,384.5 676.2,386.1 Z M585.6,315.4 C585,314.6 584.4,313.9 583.7,313.1 C580.4,309.8 576,308 571.3,308 L542.9,308 C536.7,308 531.9,309.9 528.5,313.6 C526.3,316 524.7,319.1 523.4,323.1 C523.1,324.1 522.5,325.4 521.8,326.8 C521.5,327.3 521,327.9 520.3,328.5 C519.8,328.9 518.6,329.7 516.2,330.6 C515.2,331 512.9,331.6 508.4,331.6 C504.4,331.6 502.1,331 500.9,330.5 C499.3,329.8 498,329 497.1,328 C496.2,327 495.6,326 495.1,324.7 C494.4,322.7 494,320.4 493.8,318.2 C493.7,316.5 493.6,314.1 493.5,311 C493.4,307.7 493.4,304.3 493.4,300.9 C493.4,297.5 493.4,294.1 493.5,290.9 C493.6,287.9 493.7,285.5 493.8,283.9 C494,281.6 494.5,279.4 495.2,277.3 C495.6,276 496.3,275 497.1,274 C498,273 499.3,272.2 500.9,271.5 C502.1,271 504.4,270.4 508.4,270.4 C512.9,270.4 515.2,271 516.2,271.4 C518.6,272.3 519.8,273.1 520.3,273.5 C521,274.1 521.5,274.7 521.8,275.2 C522.5,276.5 523.1,277.8 523.4,278.6 C524.7,282.8 526.4,285.9 528.6,288.3 C532,292 536.8,293.8 543,293.8 L571.4,293.8 C576.1,293.8 580.5,292 583.8,288.6 C584.5,287.9 585.1,287.2 585.7,286.4 L585.7,315.4 L585.6,315.4 Z" id="Shape"></path>
                    <path d="M232.1,47.9 C234.4,45.5 238.5,42.7 245.3,42.7 L280.4,42.7 C287.2,42.7 291.4,45.5 293.6,47.9 C296,50.4 297.7,53.1 298.7,55.8 L308,82.6 L311.9,82.6 L302.2,54.6 C301,51.4 299,48.3 296.3,45.4 C293.5,42.5 288.5,39.1 280.4,39.1 L245.3,39.1 C237.2,39.1 232.2,42.6 229.4,45.5 C226.6,48.4 224.7,51.5 223.4,54.9 L213.8,82.7 L217.7,82.7 L226.9,56.1 C228,53.1 229.6,50.4 232.1,47.9 Z" id="Shape"></path>
                    <path d="M273.1,230.9 L273.1,236.5 L276.8,236.5 L276.8,230.9 C276.8,225.9 274.9,221.3 271.3,217.7 C267.7,214.1 263.2,212.2 258.2,212.2 L233,212.2 C233.6,211.7 234.2,211.2 234.8,210.7 C237.5,208 239.3,205 240.2,201.9 L243.2,192.9 L282.5,192.9 L285.5,201.8 C286.4,205 288.3,208 291,210.7 C294.7,214.4 299.8,216.3 306.2,216.3 L326.1,216.3 C325.1,217.1 324.2,217.8 323.5,218.6 C320.7,221.5 318.8,224.6 317.5,228 L314.6,236.5 L318.5,236.5 L321,229.2 C322.1,226.3 323.8,223.6 326.2,221.1 C328.5,218.7 332.6,215.9 339.4,215.9 L358,215.9 C358.9,215.9 359.7,215.2 359.8,214.3 C359.9,213.4 359.3,212.5 358.4,212.3 C355.7,211.7 353.2,210.3 351.2,208.2 C350.3,207.3 349.6,206.4 349,205.4 C348.7,204.9 348.1,204.5 347.4,204.5 L347.4,204.5 C346.8,204.5 346.2,204.9 345.8,205.4 C345.2,206.5 344.4,207.6 343.4,208.5 C340.8,211.1 337.3,212.6 333.6,212.6 L306.3,212.6 C300.9,212.6 296.6,211.1 293.7,208.1 C291.4,205.8 289.9,203.4 289.1,200.7 L285.6,190.5 C285.4,189.8 284.7,189.3 283.9,189.3 L242,189.3 C241.2,189.3 240.5,189.8 240.3,190.5 L236.8,200.8 C236.1,203.4 234.5,205.9 232.3,208.1 C229.3,211.1 225,212.6 219.6,212.6 L210.7,212.6 L210.7,216.3 L218.2,216.3 C217.7,216.7 217.1,217.2 216.6,217.7 C213,221.3 211.1,225.8 211.1,230.9 L211.1,236.5 L214.8,236.5 L214.8,230.9 C214.8,226.9 216.3,223.2 219.2,220.3 C222,217.5 225.8,215.9 229.8,215.9 L258.2,215.9 C262.2,215.9 265.9,217.4 268.8,220.3 C271.5,223.2 273.1,226.8 273.1,230.9 Z M345.9,211.1 C346.4,210.6 346.9,210.1 347.3,209.5 C347.7,209.9 348.1,210.4 348.5,210.8 C349,211.3 349.5,211.8 350.1,212.2 L344.7,212.2 C345.1,211.9 345.5,211.5 345.9,211.1 Z" id="Shape"></path>
                    <path d="M63,47.1 C65.9,44.2 69.5,42.7 73.6,42.7 L190,42.7 C194,42.7 197.7,44.2 200.6,47.1 C203.5,50 205,53.7 205,57.7 L205,80.7 C205,81.4 204.9,82 204.8,82.6 L208.5,82.6 C208.6,82 208.7,81.3 208.7,80.7 L208.7,57.7 C208.7,52.7 206.8,48.1 203.2,44.5 C199.6,40.9 195,39 190,39 L73.6,39 C68.6,39 64,40.9 60.4,44.5 C56.8,48.1 54.9,52.6 54.9,57.7 L54.9,80.7 C54.9,81.4 55,82 55.1,82.6 L58.8,82.6 C58.7,82 58.6,81.3 58.6,80.7 L58.6,57.7 C58.6,53.6 60.2,49.9 63,47.1 Z" id="Shape"></path>
                    <path d="M274.6,358.5 C275.5,358.7 276.3,358.1 276.6,357.3 L297.3,297.5 L293.4,297.5 L276.7,345.8 L276.7,297.5 L273,297.5 L273,356.7 C273.1,357.6 273.7,358.4 274.6,358.5 Z" id="Shape"></path>
                    <path d="M445.4,224.5 C445.2,223.8 444.6,223.4 443.9,223.3 C436,222.1 431,218.3 428.2,215.4 C425.9,212.9 423.9,210.3 422.4,207.5 L419.2,201.3 C418.8,200.6 418.1,200.2 417.3,200.3 C416.5,200.4 415.9,201 415.8,201.8 C414.9,207.2 412.4,212.1 408.5,216 C406.8,217.7 404.9,219.1 402.9,220.3 C402.1,220.8 401.7,221.8 402.1,222.7 C402.5,223.6 402.9,224.4 403.2,225.3 L418.7,270 C419,270.7 419.7,271.2 420.4,271.2 L420.5,271.2 C421.3,271.1 422,270.5 422.2,269.7 C423.3,263.2 425.3,256.9 428,250.8 C432.1,241.6 437.8,233.4 445.1,226.4 C445.4,225.9 445.6,225.2 445.4,224.5 Z M424.5,249.3 C422.6,253.6 421,258 419.9,262.6 L406.5,224 C406.3,223.5 406.1,223.1 406,222.6 C407.8,221.4 409.5,220.1 411,218.6 C414.3,215.3 416.7,211.5 418.1,207.2 L419.1,209.2 C420.8,212.3 423,215.2 425.5,217.9 C428.3,220.8 432.9,224.5 439.9,226.3 C433.5,232.9 428.3,240.7 424.5,249.3 Z" id="Shape"></path>
                    <path d="M503.8,202.2 C504.2,202.6 504.7,202.8 505.2,202.8 C508.9,202.7 512.8,202.8 516.5,203 L516.6,203 C517.1,203 517.6,202.8 517.9,202.4 C518.3,202 518.5,201.5 518.4,200.9 C518.3,199.8 518.2,198.7 518.2,197.6 L518.2,162.2 L514.5,162.2 L514.5,197.6 L514.5,199.2 C512.4,199.1 510.4,199 508.3,199 L506.9,199 L506.9,198.6 C506.9,194.2 505.8,189.8 503.7,185.6 L491.5,162.1 L487.4,162.1 L500.5,187.3 C502.3,191 503.3,194.8 503.3,198.6 C503.3,199.3 503.3,200 503.2,200.7 C503.2,201.3 503.4,201.8 503.8,202.2 Z" id="Shape"></path>
                    <path d="M532.1,299.2 C528.6,297.9 525.6,295.8 523.1,293.2 C520.2,290.1 518,286.1 516.4,281 C516.3,280.8 516.1,280.3 515.8,279.6 C515.6,279.2 515.3,278.9 514.9,278.7 C514.6,278.6 514.2,278.4 513.5,278.1 C513.1,278 511.5,277.6 508.4,277.6 C505.6,277.6 504.3,277.9 503.7,278.1 C503.3,278.3 503,278.4 502.7,278.6 C502.3,278.8 502,279.2 501.9,279.7 C501.5,281.3 501.2,282.8 501.1,284.4 C501,285.8 500.9,288 500.8,290.9 C500.7,294.1 500.7,297.4 500.7,300.8 C500.7,304.2 500.7,307.5 500.8,310.8 C500.9,313.7 500.9,316 501.1,317.6 C501.2,319.2 501.6,320.8 502.1,322.3 C502.3,322.8 502.7,323.2 503.1,323.4 C503.2,323.5 503.4,323.6 503.7,323.7 L503.8,323.7 C504,323.8 505.4,324.2 508.4,324.2 C512,324.2 513.5,323.7 513.7,323.7 C514.3,323.5 514.7,323.3 515,323.2 C515.4,323 515.7,322.7 515.9,322.3 C516.2,321.6 516.4,321.2 516.5,320.9 C518.1,315.8 520.3,311.9 523.2,308.7 C525.7,306 528.7,304 532.2,302.6 C532.9,302.3 533.4,301.7 533.4,300.9 C533.4,300.1 532.8,299.4 532.1,299.2 Z M520.4,306.2 C517.2,309.7 514.7,314.1 513,319.7 C513,319.8 512.9,319.9 512.8,320.1 C512.7,320.1 512.6,320.2 512.6,320.2 C512.6,320.2 511.4,320.5 508.5,320.5 C506.9,320.5 505.9,320.4 505.4,320.3 C505.1,319.3 504.9,318.3 504.9,317.3 C504.8,315.7 504.7,313.5 504.6,310.7 C504.5,307.5 504.5,304.2 504.5,300.8 C504.5,297.4 504.5,294.2 504.6,291 C504.7,288.2 504.7,286.1 504.8,284.7 C504.9,283.7 505.1,282.6 505.3,281.5 C505.7,281.4 506.7,281.3 508.4,281.3 C511.1,281.3 512.4,281.6 512.4,281.6 L512.4,281.6 C512.5,281.7 512.7,281.7 512.8,281.7 C512.9,281.9 512.9,282 512.9,282 C514.7,287.6 517.1,292 520.4,295.6 C522.3,297.7 524.6,299.5 527.1,300.9 C524.6,302.3 522.3,304.1 520.4,306.2 Z" id="Shape"></path>
                    <path d="M285.6,293.3 L285.9,293.3 C286.7,293.3 287.4,292.8 287.6,292.1 L310.5,226 C310.7,225.4 310.6,224.8 310.3,224.3 C310,223.8 309.4,223.5 308.8,223.5 L306.3,223.5 C295.8,223.5 289.4,219.3 285.9,215.7 C282.4,212.2 279.9,208.2 278.6,203.8 L277.7,201.2 C277.5,200.5 276.8,200 276,200 L259.5,200 L259.5,204.8 C265.9,205.1 271.9,207.8 276.5,212.3 C281.4,217.2 284.1,223.8 284.1,230.7 L284.1,291.3 C284,292.4 284.7,293.2 285.6,293.3 Z M306.2,227.3 L287.7,280.7 L287.7,230.9 C287.7,227.4 287.1,224.1 286,220.9 C290.2,224.2 296.7,227.3 306.2,227.3 Z M270.2,203.9 L274.6,203.9 L275,205.1 C275.2,205.8 275.4,206.5 275.7,207.1 C274,205.8 272.1,204.7 270.2,203.9 Z" id="Shape"></path>
                    <path d="M508.4,399 C495.6,399 483.8,397 473.4,393 C465.8,390.1 458.9,386.4 452.8,381.9 C452.4,381.6 451.8,381.5 451.3,381.6 C450.8,381.7 450.3,382.1 450.1,382.6 C448.9,385.2 447.2,387.5 445.2,389.5 C440.5,394.2 434.3,396.8 427.6,396.8 L400.3,396.8 C389.8,396.8 383.4,392.6 379.9,389 C376.4,385.5 373.9,381.5 372.6,377.1 L371.7,374.5 C371.5,373.8 370.8,373.3 370,373.3 L343.8,373.3 C343,373.3 342.3,373.8 342.1,374.5 L341.2,377.1 C339.9,381.4 337.5,385.4 334,388.9 C330.4,392.4 324,396.7 313.6,396.7 L286.3,396.7 C281.7,396.7 277.2,395.4 273.3,393 C272.7,392.6 272,392.6 271.4,393 C267.8,395.2 263.7,396.4 259.5,396.6 L259.5,400.3 C264,400.1 268.4,398.9 272.4,396.7 C276.6,399.1 281.4,400.3 286.4,400.3 L313.7,400.3 C325.4,400.3 332.7,395.5 336.7,391.5 C340.7,387.5 343.4,383.1 344.8,378.2 L345.2,376.9 L368.7,376.9 L369.1,378.1 C370.6,383 373.3,387.5 377.3,391.4 C381.3,395.4 388.6,400.2 400.3,400.2 L427.6,400.2 C435.2,400.2 442.4,397.2 447.8,391.8 C449.6,390 451.2,388 452.4,385.8 C458.4,389.9 465,393.4 472.2,396.2 C483,400.3 495.2,402.4 508.5,402.4 C520.6,402.4 532.2,400.5 542.8,396.9 C547.6,395.3 552.1,393.3 556.4,391.1 L556.4,387 C551.8,389.5 546.8,391.7 541.6,393.5 C531.3,397.2 520.1,399 508.4,399 Z" id="Shape"></path>
                    <path d="M88,110.2 L88,194.8 L91.7,194.8 L91.7,108.4 C91.7,107.4 90.9,106.6 89.9,106.6 L73.6,106.6 C73,106.6 72.3,106.6 71.7,106.5 L71.7,106.6 L54.1,106.6 L54.1,131.3 L34.9,131.3 L34.9,135 L57.8,135 L57.8,110.3 L73.6,110.3 L88,110.3 L88,110.2 Z" id="Shape"></path>
                    <path d="M196.8,106.7 C196.4,106.2 195.7,106 195.1,106.1 C193.5,106.4 191.8,106.6 190.1,106.6 L173.9,106.6 C172.9,106.6 172.1,107.4 172.1,108.4 L172.1,170.3 C172.1,171.2 172.7,172 173.6,172.1 L173.9,172.1 C174.7,172.1 175.4,171.6 175.6,170.9 L197.2,108.5 C197.3,107.8 197.2,107.2 196.8,106.7 Z M175.6,159.4 L175.6,110.2 L190,110.2 C190.9,110.2 191.8,110.2 192.7,110.1 L175.6,159.4 Z" id="Shape"></path>
                    <path d="M122.8,310 L122.8,370.8 C122.8,376.1 124.9,380.9 128.6,384.4 C132.1,387.7 136.6,389.5 141.5,389.5 L169.9,389.5 C174.9,389.5 179.5,387.6 183.1,384 C186.6,380.5 188.6,375.8 188.6,370.8 L188.6,330.5 L211,330.5 L211,370.8 C211,375.8 212.9,380.4 216.5,383.9 C220,387.5 224.7,389.4 229.7,389.4 L258.1,389.4 C263.1,389.4 267.7,387.5 271.3,383.9 C271.7,383.5 272.1,383.1 272.5,382.6 C272.9,383.2 273.4,383.7 273.9,384.2 C277.2,387.5 281.6,389.4 286.3,389.4 L313.6,389.4 C320,389.4 325.1,387.5 328.8,383.8 C331.5,381.1 333.3,378.1 334.2,375 L337.2,366 L376.5,366 L379.5,374.9 C380.4,378.1 382.3,381.1 385,383.8 C388.7,387.5 393.8,389.4 400.2,389.4 L414.5,389.4 L414.5,385.7 L400.2,385.7 C394.8,385.7 390.5,384.2 387.6,381.2 C385.3,378.9 383.8,376.5 383,373.8 L379.5,363.6 C379.3,362.9 378.6,362.4 377.8,362.4 L336,362.4 C335.2,362.4 334.5,362.9 334.3,363.6 L330.8,373.9 C330.1,376.5 328.5,379 326.3,381.2 C323.3,384.2 319,385.7 313.6,385.7 L286.3,385.7 C282.6,385.7 279.1,384.2 276.4,381.6 C275.5,380.7 274.7,379.6 274.1,378.5 C273.8,377.9 273.2,377.6 272.5,377.6 C271.7,377.5 271.2,377.9 270.9,378.5 C270.3,379.5 269.5,380.5 268.6,381.4 C265.7,384.3 262.1,385.8 258,385.8 L229.6,385.8 C225.6,385.8 221.8,384.2 219,381.4 C216.2,378.6 214.6,374.8 214.6,370.8 L214.6,328.7 C214.6,327.7 213.8,326.9 212.8,326.9 L186.6,326.9 C185.6,326.9 184.8,327.7 184.8,328.7 L184.8,370.8 C184.8,374.8 183.2,378.5 180.4,381.4 C177.5,384.3 173.9,385.8 169.8,385.8 L141.4,385.8 C137.5,385.8 133.9,384.4 131,381.7 C128,378.9 126.4,375 126.4,370.8 L126.4,306.4 L124.6,306.4 L124.6,306.3 L97.4,306.3 L97.4,308.1 L97.4,309.9 L122.8,309.9 L122.8,310 Z" id="Shape"></path>
                    <path d="M496,452.9 L476,452.9 L487.1,444.5 C488.9,443.2 490.4,441.8 491.7,440.5 C492.9,439.2 494,437.8 494.7,436.5 C495.4,435.2 496,433.8 496.3,432.3 C496.6,430.9 496.8,429.4 496.8,427.8 C496.8,425.4 496.3,423 495.4,420.8 C494.5,418.5 493.1,416.6 491.3,414.8 C489.5,413.1 487.3,411.7 484.6,410.7 C481.9,409.7 478.8,409.1 475.3,409.1 C471.6,409.1 468.4,409.7 465.6,410.8 C462.9,411.9 460.6,413.4 458.8,415.2 C457,417 455.6,419 454.7,421.2 C453.8,423.4 453.3,425.6 453.3,427.8 C453.3,428.3 453.5,428.7 453.8,429 C454.1,429.3 454.6,429.5 455,429.5 L464.8,429.5 C465.5,429.5 466.2,429.4 466.7,429.1 C467.3,428.9 467.7,428.4 467.9,427.6 C468,427.3 468.2,426.8 468.4,426.1 C468.6,425.4 469,424.8 469.5,424.2 C470,423.6 470.7,423 471.6,422.5 C472.5,422 473.7,421.7 475.2,421.7 C476.7,421.7 477.9,421.9 478.7,422.4 C479.5,422.9 480.3,423.4 480.7,424.1 C481.2,424.8 481.5,425.4 481.6,426.1 C481.7,426.8 481.8,427.3 481.8,427.7 C481.8,428.8 481.6,429.9 481.1,431 C480.6,432.1 479.5,433.4 477.6,434.8 L453.8,451.8 C453,452.4 452.4,453.1 452,453.9 C451.7,454.7 451.5,455.6 451.5,456.4 L451.5,463.2 C451.5,463.8 451.7,464.3 452.1,464.7 C452.5,465.1 453,465.3 453.6,465.3 L495.6,465.3 C496.2,465.3 496.7,465.1 497.1,464.7 C497.5,464.3 497.7,463.8 497.7,463.2 L497.7,454.8 C497.7,454.2 497.5,453.7 497.1,453.3 C497.1,453.1 496.6,452.9 496,452.9 Z" id="Shape"></path>
                    <path d="M550.6,422.5 C549.7,419.9 548.3,417.6 546.4,415.6 C544.5,413.6 542.1,412.1 539.3,410.9 C536.4,409.7 533,409.2 529,409.2 C525,409.2 521.6,409.8 518.7,410.9 C515.8,412.1 513.5,413.6 511.6,415.6 C509.7,417.6 508.3,419.9 507.4,422.5 C506.5,425.1 505.9,427.9 505.8,430.7 C505.7,433 505.6,435.4 505.6,437.9 C505.6,440.4 505.7,442.7 505.8,444.9 C506,447.8 506.5,450.5 507.4,453.1 C508.3,455.7 509.7,458 511.6,460 C513.5,462 515.9,463.5 518.7,464.7 C521.6,465.9 525,466.4 529,466.4 C533,466.4 536.4,465.8 539.3,464.7 C542.2,463.5 544.5,462 546.4,460 C548.3,458 549.7,455.7 550.6,453.1 C551.5,450.5 552.1,447.7 552.2,444.9 C552.3,442.7 552.4,440.4 552.4,437.9 C552.4,435.4 552.3,433 552.2,430.7 C552.1,427.9 551.6,425.1 550.6,422.5 Z M537.6,444.5 C537.5,445.8 537.4,447 537.1,448.2 C536.8,449.3 536.3,450.3 535.7,451.1 C535,451.9 534.2,452.6 533.1,453 C532,453.5 530.7,453.7 529.1,453.7 C527.5,453.7 526.2,453.5 525.1,453 C524,452.5 523.2,451.9 522.5,451.1 C521.8,450.3 521.4,449.3 521.1,448.2 C520.8,447.1 520.6,445.9 520.6,444.5 C520.3,440 520.3,435.5 520.6,431.1 C520.7,429.8 520.8,428.6 521.2,427.4 C521.5,426.3 522,425.3 522.6,424.5 C523.2,423.7 524.1,423 525.1,422.6 C526.1,422.2 527.5,421.9 529.1,421.9 C530.7,421.9 532,422.1 533.1,422.6 C534.2,423.1 535,423.7 535.6,424.5 C536.2,425.3 536.7,426.3 537,427.4 C537.3,428.5 537.5,429.7 537.6,431.1 C537.8,435.5 537.8,440 537.6,444.5 Z" id="Shape"></path>
                    <path d="M589,410 L579.3,410 C578.5,410 577.8,410.2 577.2,410.6 C576.6,411 576.1,411.4 575.7,411.7 L558.6,424.8 C558.1,425.2 557.8,425.6 557.7,426.2 C557.6,426.8 557.7,427.3 558.1,427.8 L564,435.4 C564.4,435.9 564.8,436.2 565.4,436.2 C566,436.3 566.5,436.1 567,435.8 L576.5,428.6 L576.5,463.4 C576.5,464 576.7,464.5 577.1,464.9 C577.5,465.3 578,465.5 578.6,465.5 L589,465.5 C589.6,465.5 590.1,465.3 590.5,464.9 C590.9,464.5 591.1,464 591.1,463.4 L591.1,412 C591.1,411.4 590.9,410.9 590.5,410.5 C590.1,410.2 589.6,410 589,410 Z" id="Shape"></path>
                    <path d="M638.9,410 L600.9,410 C600.3,410 599.8,410.2 599.4,410.6 C599,411 598.8,411.5 598.8,412.1 L598.8,420.5 C598.8,421.1 599,421.6 599.4,422 C599.8,422.4 600.3,422.6 600.9,422.6 L624.6,422.6 L607.4,462.7 C607.2,463.1 607.2,463.4 607.2,463.7 C607.2,464.2 607.4,464.7 607.8,465.1 C608.2,465.5 608.6,465.7 609.2,465.7 L620.3,465.7 C620.9,465.7 621.4,465.5 621.8,465.1 C622.1,464.7 622.4,464.3 622.6,463.8 L639.9,423.6 C640.7,421.7 641.2,420.4 641.2,419.5 L641.2,412.1 C641.2,411.5 641,411 640.6,410.6 C640,410.2 639.5,410 638.9,410 Z" id="Shape"></path>
                </g>
            </g>
        </g>
    </g>
</svg>