<?xml version="1.0" encoding="utf-8"?>
<!-- Generator: Adobe Illustrator 17.1.0, SVG Export Plug-In . SVG Version: 6.00 Build 0)  -->
<!DOCTYPE svg PUBLIC "-//W3C//DTD SVG 1.1//EN" "http://www.w3.org/Graphics/SVG/1.1/DTD/svg11.dtd">
<svg version="1.1" id="Layer_1" xmlns="http://www.w3.org/2000/svg" xmlns:xlink="http://www.w3.org/1999/xlink" x="0px" y="0px"
	 viewBox="0 0 300 300" enable-background="new 0 0 300 300" xml:space="preserve">
<linearGradient id="SVGID_1_" gradientUnits="userSpaceOnUse" x1="150.0523" y1="298.0318" x2="150.0523" y2="1.7444">
	<stop  offset="0" style="stop-color:#FFBE2A"/>
	<stop  offset="1" style="stop-color:#FF54A0"/>
</linearGradient>
<circle fill="url(#SVGID_1_)" cx="150.1" cy="149.9" r="148.1"/>
<g>
	<path fill="#FFFFFF" d="M218.3,217c-1.9,2.7-5.9,2.3-8-0.2c-1.2-1.5-1.6-3.5-1.1-5.3c0.5-1.8,1.7-3.3,2.6-5c1.4-2.5,0-6,2-8.3
		c0.6-0.7,1.6-1.1,2.5-0.7c1,0.4,1.4,1.5,1.6,2.4c0.3,1.2,0.3,2.5,0.4,3.8c0.1,1.3,0.4,2.5,0.6,3.8c0.4,2.8,1.1,6.2-0.2,8.8
		C218.5,216.6,218.4,216.8,218.3,217z"/>
	<path fill="#FFFFFF" d="M199.4,245.8c-0.3,0.3-0.6,0.6-1,0.9c-0.7,0.6-1.4,1.2-2.2,1.8c-2.1,1.5-4.5,2.7-7.2,3
		c-0.9,0.1-1.8,0-2.6-0.2c-1-0.2-3.3-0.5-3.1-2c0.1-1,1.3-1.6,2.1-1.9c2.8-1.3,5.9-1.7,8.1-4.1c1.4-1.5,2.5-3.3,3.3-5.2
		c0.7-1.5,1.3-3.1,1.8-4.7c0.4-1.4,0.8-2.8,1.6-4c0.4-0.5,0.8-1,1.4-1.2c1.1-0.4,2.2,0.4,2.8,1.3c1.9,2.7,1.3,6.5,0,9.3
		C203.3,241.4,201.5,243.8,199.4,245.8z"/>
	<path fill="#FFFFFF" d="M159.1,102.7c3.1,2.9-2.9,3.6-4.6,3.9c-4.3,0.6-8.2,1.1-12,3.4c-2.8,1.7-5.2,4.6-8.5,5.6
		c-2.6,0.8-6.7,0-7.7-2.9c-1.7-4.8,8.7-7.2,11.6-7.9c3.9-1.1,8-1.4,12.1-1.9c2.4-0.3,4.7-1.3,7.2-1.1
		C157.8,101.8,158.5,102.2,159.1,102.7z"/>
	<path fill="#FFFFFF" d="M203.5,162.1c-2-0.1-4-1.6-4.9-3.3c-1.7-2.9-0.5-6.3,0.2-9.3c0.9-4.1-1-7.7-1.9-11.6
		c-0.6-2.5-0.6-8.8,3.3-8.7c2.5,0.1,3.6,2.8,3.8,4.9c0.3,3.5,0.3,6.6,2.4,9.5c2.4,3.4,5.7,6.7,5,11.2c-0.5,3.6-3.6,7.2-7.4,7.3
		C203.8,162.1,203.7,162.1,203.5,162.1z"/>
	<path fill="#FFFFFF" d="M85.3,56.8c0.2,0,0.3-0.1,0.5-0.1c2.9-0.1,2.9,3.7,2.8,5.7c-0.7,8.1-1.1,16.3-0.3,24.4
		c0.3,3.6,1.2,7.2,1.8,10.8c0.4,2.1,1.1,4.3,2.9,5.7c1.2,1,2.7,1.5,4.2,1.8c1,0.2,2,0.3,2.7,1.2c1.6,2,2.6,7.9-0.8,8.6
		c-2.7,0.6-5.7,0.1-8.2-1.1c-1.1-0.5-2.4-1.1-3.3-1.9c-8.8-8-6.8-24.1-5.9-34.7c0.4-4.3,0.6-8.6,0.9-12.9
		C82.5,62.3,82.6,57.6,85.3,56.8z"/>
	<path fill="#FFFFFF" d="M198.7,110.7c0,0-0.1-0.1-0.1-0.1c-1.6-2,0.8-6.5,1.6-8.4c1.2-2.7,2.5-5.3,3.7-8.1
		c2.4-5.7,3.9-11.1,3.2-17.4c-1.1-9.5-5.9-18.4-5.6-28.1c0-1.5,1-3.2,2.6-2.6c1.8,0.7,3.3,3.4,4.1,5c2.2,4.2,3.1,9,4.1,13.7
		c2.1,9.3,4.6,19.2,2.2,28.6c-0.7,2.6-1.7,5.2-3.2,7.5C210,102.8,202,114.3,198.7,110.7z"/>
	<path fill="#FFFFFF" d="M106.5,204.6c-0.7,1.1-1.3,2.2-1.7,3.4c-1.3,3.6-1.2,7.4-0.5,11.1c0.9,4.2,2.3,8.7,5.2,11.9
		c2.7,3,6.5,4.6,10.2,6c2.1,0.8,4.4,1.4,6.4,2.4c6.4,2.9,10.4,9,17.5,10.5c7,1.5,14.6,0.8,21.7,0.2c2.6-0.2,6.5-1,8.6,1.1
		c4.7,4.7-5.8,7.2-8.4,7.6c-12,1.9-25.3-0.7-35.3-7.7c-12.4-8.6-40.3-16.9-35.1-37.3c2-7.8,8.5-12.7,8.6-21.3
		c0-2.8-3.8-16.8,2.5-14.1c4.8,2.1,6.8,7,6.6,12C112.4,196.2,109.5,200,106.5,204.6z"/>
	<path fill-rule="evenodd" clip-rule="evenodd" fill="#FFFFFF" d="M92.9,159.1c0-2.6,1-5.4,2.4-7.3c1.7-2.3,3.2-5,5.9-6.3
		c1.1-0.5,2.5-0.9,3.7-0.7c2.6,0.4,3.6,2.7,2.4,5.1c-0.6,1.2-1.4,2.2-2.1,3.4c-1.6,2.8-2.3,5.6-0.3,8.5c0.6,1,1.1,2,1.6,3
		c1,1.9,0,4.2-2.2,5c-1.5,0.5-3.1,0.6-4.3-0.4c-2.5-2.1-5.5-4.2-6.7-7.4C93.1,161.1,92.9,160.1,92.9,159.1z"/>
	<path fill-rule="evenodd" clip-rule="evenodd" fill="#FFFFFF" d="M160.5,208.7c-1.2,0-2.4-0.1-3.5-0.1c-1,0-1.5-0.4-1.7-1.3
		c-0.2-0.8,0.3-1.3,1.1-1.5c2.1-0.7,4.3-1.1,6.6-0.7c2.5,0.5,4.2,1.9,5.3,4.1c0.7,1.4,0.1,3.4-1.1,4.3c-1.7,1.3-3.8,1.7-5.9,2
		c-0.3,0.1-1-0.6-1.1-1c-0.4-0.8-0.3-1.7,0.6-2.3c0.5-0.3,1.1-0.5,1.5-0.9c0.3-0.3,0.7-1,0.6-1.3c-0.1-0.4-0.7-0.8-1.2-1.1
		C161.3,208.8,160.9,208.8,160.5,208.7C160.5,208.7,160.5,208.7,160.5,208.7z"/>
	<path fill-rule="evenodd" clip-rule="evenodd" fill="#FFFFFF" d="M150.5,210.6c0.3,1.3,1.1,2.1,2.2,2.5c0.9,0.4,1.9,0.5,2.8,0.8
		c0.6,0.2,1.2,0.3,1.6,0.7c0.4,0.4,0.6,1,0.6,1.5c0,0.3-0.7,0.6-1.2,0.7c-3.6,1-6.6,0-9.3-2.4c-1.2-1.1-1.8-2.5-1.2-4.1
		c0.5-1.4,1.8-2.1,3.2-2.6c0.6-0.2,1.2-0.3,1.7-0.4c0.9-0.2,1.8-0.2,2.1,0.9c0.3,1.2-0.8,1.3-1.4,1.9
		C151.4,210.4,150.9,210.4,150.5,210.6z"/>
	<path fill-rule="evenodd" clip-rule="evenodd" fill="#FFFFFF" d="M168,77.3c1.2-10.7,5.2-19.2,11.3-26.6c2.6-3.1,5.5-5.8,8.7-8
		c1.1-0.7,2.1-1.1,3.2-0.4c2,1.2,2.1,3.9,0.3,5.7c-5.9,5.6-11,12.1-14.1,20.5c-1.9,5-3,10.3-2.8,15.7c0.1,1.5,0.5,3,0.7,4.6
		c0.2,1.1,0.4,2.4-0.5,3.2c-0.9,0.9-2,0.4-2.9-0.2c-1.4-1-2.3-2.6-3-4.4C167.6,84,167.5,80.4,168,77.3z"/>
	<path fill-rule="evenodd" clip-rule="evenodd" fill="#FFFFFF" d="M125.5,92.4c0.1,4.2-0.1,8.2-1.8,12.1c-0.9,2.2-2.8,3.2-5.3,2.7
		c-2.3-0.4-3.9-2.2-3.8-4.4c0.1-2.8,0.6-5.6,0.6-8.3c0.1-19.4-9.3-33.1-26-42.3c-0.8-0.4-1.7-0.8-2.1-1.4c-0.5-0.8-1-2-0.8-2.8
		c0.2-0.7,1.5-1.5,2.3-1.6c1.4-0.1,3,0.1,4.3,0.6c8.9,3.3,15.9,9.2,21.7,16.5c5,6.3,8.5,13.3,9.9,21.2
		C125,87.3,125.2,89.8,125.5,92.4z"/>
</g>
</svg>
