<?xml version="1.0" encoding="UTF-8"?>
<svg width="290px" height="289px" viewBox="0 0 290 289" version="1.1" xmlns="http://www.w3.org/2000/svg" xmlns:xlink="http://www.w3.org/1999/xlink">
    <!-- Generator: Sketch 39.1 (31720) - http://www.bohemiancoding.com/sketch -->
    <title>Slice 1</title>
    <desc>Created with Sketch.</desc>
    <defs></defs>
    <g id="Page-1" stroke="none" stroke-width="1" fill="none" fill-rule="evenodd">
        <g id="scotty-circle">
            <circle id="Oval" fill="#1B818F" cx="144.96" cy="144.6" r="144.399"></circle>
            <g id="Group" transform="translate(55.000000, 42.000000)">
                <path d="M175.73,0.244 C175.628,0.244 175.52,0.25 175.418,0.263 C175.283,0.269 175.15,0.288 175.016,0.314 C171.785,0.932 168.547,1.378 165.348,2.175 C159.651,3.596 154.092,5.521 148.675,7.764 C145.718,8.987 142.824,10.364 139.925,11.715 C134.08,14.449 128.141,17.317 123.023,21.294 C122.902,21.389 122.782,21.491 122.667,21.593 C121.629,22.511 120.863,23.696 120.321,24.971 C119.945,25.857 119.666,26.775 119.48,27.718 C119.263,28.826 119.124,29.999 119.104,31.134 C119.066,32.868 119.148,34.62 119.277,36.354 C119.436,38.61 119.697,40.866 119.843,43.123 L60.075,43.123 C60.222,40.867 60.483,38.611 60.643,36.354 C60.77,34.621 60.852,32.868 60.821,31.134 C60.796,30 60.655,28.827 60.439,27.718 C60.253,26.775 59.973,25.857 59.597,24.971 C59.055,23.696 58.29,22.511 57.252,21.593 C57.138,21.491 57.016,21.389 56.895,21.294 C51.778,17.317 45.837,14.449 39.993,11.715 C37.093,10.364 34.2,8.987 31.249,7.764 C25.825,5.52 20.268,3.596 14.57,2.175 C11.371,1.378 8.133,0.932 4.902,0.314 C4.768,0.289 4.634,0.27 4.501,0.263 C4.399,0.25 4.291,0.244 4.189,0.244 C2.398,0.244 0.919,1.576 0.69,3.309 C0.696,3.71 0.71,4.105 0.722,4.501 C0.983,11.753 1.939,18.942 3.552,26.023 C3.628,26.342 3.705,26.654 3.781,26.966 C6.521,38.183 10.154,49.763 16.846,59.298 C19.542,63.147 23.098,65.13 27.164,67.271 C28.114,67.768 29.07,68.329 30.051,68.775 C30.197,68.838 30.172,69.214 30.089,69.642 C29.637,71.943 29.076,74.218 28.655,76.525 C27.986,80.157 27.546,83.784 27.565,87.486 C27.571,88.748 27.642,90.016 27.686,91.278 C27.737,92.546 27.794,93.808 27.871,95.07 C27.954,96.332 28.05,97.594 28.164,98.856 C28.278,100.118 28.419,101.38 28.572,102.635 C28.731,103.89 28.904,105.153 29.088,106.407 C29.273,107.663 29.477,108.913 29.694,110.161 C29.904,111.417 30.133,112.659 30.369,113.909 C30.611,115.151 30.86,116.395 31.121,117.631 C31.382,118.867 31.656,120.104 31.937,121.334 C32.357,123.169 32.766,125.011 33.282,126.827 C33.448,127.389 33.614,127.942 33.773,128.504 C34.066,129.556 34.378,130.607 34.544,131.691 C34.57,131.882 34.697,132.379 34.519,132.545 L23.563,142.824 C23.085,143.443 22.677,144.106 22.384,144.839 C21.511,147.051 21.906,149.453 22.174,151.741 C22.582,155.195 22.99,158.643 23.513,162.086 C24.647,169.586 26.291,176.967 29.433,184.06 C30.115,185.596 30.899,187.107 31.708,188.58 C35.15,194.851 39.707,200.867 44.359,206.298 C45.105,207.164 45.889,207.993 46.692,208.808 C47.38,209.503 48.075,210.199 48.763,210.893 C48.923,211.046 49.069,211.205 49.229,211.358 L89.96,193.182 L130.69,211.358 C130.85,211.206 130.997,211.046 131.155,210.893 C131.844,210.199 132.538,209.503 133.227,208.808 C134.03,207.994 134.814,207.164 135.559,206.298 C140.212,200.867 144.769,194.851 148.21,188.58 C149.02,187.107 149.804,185.597 150.485,184.06 C153.627,176.967 155.271,169.586 156.406,162.086 C156.928,158.644 157.336,155.195 157.744,151.741 C158.018,149.453 158.407,147.051 157.534,144.839 C157.241,144.107 156.833,143.443 156.355,142.824 L145.4,132.545 C145.221,132.379 145.349,131.883 145.375,131.691 C145.54,130.607 145.853,129.556 146.146,128.504 C146.306,127.942 146.472,127.389 146.637,126.827 C147.154,125.011 147.561,123.169 147.982,121.334 C148.262,120.104 148.537,118.867 148.798,117.631 C149.059,116.396 149.307,115.152 149.55,113.909 C149.785,112.659 150.015,111.417 150.225,110.161 C150.442,108.913 150.646,107.663 150.831,106.407 C151.015,105.152 151.187,103.889 151.347,102.635 C151.499,101.38 151.64,100.117 151.754,98.856 C151.869,97.594 151.965,96.332 152.048,95.07 C152.124,93.808 152.182,92.547 152.233,91.278 C152.278,90.016 152.347,88.748 152.354,87.486 C152.374,83.783 151.933,80.157 151.264,76.525 C150.843,74.218 150.283,71.942 149.83,69.642 C149.746,69.215 149.722,68.839 149.868,68.775 C150.849,68.329 151.806,67.768 152.755,67.271 C156.821,65.129 160.378,63.147 163.073,59.298 C169.764,49.763 173.398,38.183 176.137,26.966 C176.214,26.654 176.29,26.341 176.367,26.023 C177.979,18.942 178.935,11.753 179.197,4.501 C179.209,4.105 179.221,3.71 179.228,3.309 C179,1.576 177.521,0.244 175.73,0.244 L175.73,0.244 Z" id="Shape" fill="#E3E3E3"></path>
                <path d="M81.044,116.249 L51.498,122.584 C49.586,122.986 47.693,123.464 45.87,124.133 C42.467,125.389 39.707,127.58 37.107,130.054 C37.05,129.889 36.999,129.729 36.941,129.563 C36.495,128.218 36.068,126.874 35.667,125.516 C35.278,124.177 34.909,122.827 34.551,121.482 C34.201,120.131 33.883,118.78 33.583,117.417 C33.284,116.04 32.978,114.663 32.71,113.28 C32.5,112.196 32.309,111.106 32.156,110.01 C31.812,107.461 31.697,104.886 31.487,102.317 C31.309,100.093 31.136,97.862 31.028,95.632 C30.926,93.452 30.882,91.259 31.009,89.08 C31.13,86.894 31.429,84.727 31.888,82.592 C32.124,81.503 32.391,80.425 32.691,79.355 C32.984,78.284 33.239,77.163 33.628,76.117 C35.756,70.388 38.331,65.257 42.053,60.369 C45.444,55.92 50.759,51.51 56.45,50.777 C60.917,50.203 65.142,51.656 68.655,54.225 C72.09,56.736 74.837,60.312 76.462,64.078 C79.432,70.963 80.573,78.71 81.051,86.295 L81.051,109.224 L81.051,109.289 L81.044,116.249 L81.044,116.249 Z" id="Shape" fill="#FFFFFF"></path>
                <path d="M148.893,95.632 C148.785,97.862 148.613,100.093 148.435,102.317 C148.225,104.886 148.11,107.461 147.765,110.01 C147.612,111.106 147.421,112.196 147.21,113.28 C146.942,114.663 146.637,116.04 146.337,117.417 C146.038,118.78 145.719,120.132 145.368,121.482 C145.017,122.827 144.641,124.177 144.253,125.516 C143.852,126.873 143.425,128.218 142.979,129.563 C142.922,129.729 142.871,129.889 142.814,130.054 C140.213,127.58 137.454,125.389 134.05,124.133 C132.228,123.464 130.335,122.987 128.423,122.584 L98.876,116.249 L98.877,116.249 L98.877,86.181 C99.358,78.632 100.504,70.929 103.459,64.077 C105.084,60.311 107.83,56.735 111.266,54.224 C114.778,51.656 119.002,50.203 123.471,50.776 C129.161,51.509 134.478,55.919 137.868,60.368 C141.589,65.256 144.164,70.387 146.292,76.116 C146.682,77.161 146.937,78.283 147.23,79.354 C147.53,80.424 147.797,81.502 148.033,82.591 C148.493,84.726 148.791,86.893 148.913,89.079 C149.039,91.259 148.995,93.452 148.893,95.632 L148.893,95.632 Z" id="Shape" fill="#FFFFFF"></path>
                <g transform="translate(73.000000, 127.000000)" id="Shape">
                    <path d="M32.988,5.854 L16.954,17.543 L0.931,5.854 C1.201,5.211 1.646,4.612 2.208,4.057 C3.12,3.161 4.342,2.403 5.617,1.805 C7.401,0.971 9.766,0.385 11.912,0.423 C13.595,0.465 15.279,0.414 16.954,0.455 C18.638,0.414 20.318,0.465 21.996,0.423 C24.152,0.385 26.517,0.971 28.293,1.805 C29.565,2.403 30.782,3.16 31.702,4.057 C32.261,4.611 32.711,5.211 32.988,5.854 L32.988,5.854 Z" fill="#595A5C"></path>
                    <path d="M31.703,4.057 C30.783,3.161 29.566,2.403 28.294,1.805 C26.518,0.971 24.152,0.385 21.997,0.423 C21.339,0.442 20.684,0.442 20.027,0.436 C23.772,2.459 26.917,5.253 29.154,8.648 L32.988,5.854 C32.711,5.211 32.261,4.611 31.703,4.057 L31.703,4.057 Z" fill="#FFFFFF" opacity="0.4"></path>
                </g>
                <path d="M74.264,108.904 C74.264,112.729 71.16,115.823 67.33,115.823 C63.504,115.823 60.4,112.729 60.4,108.904 C60.4,105.06 63.504,101.967 67.33,101.967 C68.092,101.967 68.835,102.092 69.521,102.328 C71.853,103.09 73.64,105.072 74.129,107.525 C74.216,107.97 74.264,108.432 74.264,108.904 L74.264,108.904 Z" id="Shape" fill="#676767"></path>
                <path d="M119.52,108.904 C119.52,112.729 116.416,115.823 112.587,115.823 C108.762,115.823 105.656,112.729 105.656,108.904 C105.656,105.06 108.761,101.967 112.587,101.967 C113.348,101.967 114.096,102.092 114.776,102.328 C117.109,103.09 118.899,105.072 119.382,107.525 C119.476,107.97 119.52,108.432 119.52,108.904 L119.52,108.904 Z" id="Shape" fill="#676767"></path>
                <path d="M60.214,41.493 C60.358,39.783 60.537,38.073 60.657,36.362 C60.784,34.63 60.867,32.877 60.835,31.143 C60.81,30.009 60.669,28.836 60.453,27.727 C60.267,26.783 59.987,25.866 59.612,24.979 C59.07,23.705 58.305,22.52 57.267,21.602 C57.152,21.5 57.03,21.398 56.91,21.303 C51.793,17.326 45.853,14.458 40.009,11.724 C37.109,10.373 34.217,8.996 31.265,7.772 C25.841,5.529 20.284,3.604 14.586,2.183 C11.387,1.386 8.149,0.939 4.918,0.322 C4.784,0.296 4.65,0.277 4.517,0.271 C4.49,0.267 4.461,0.269 4.433,0.266 C16.526,4.955 28.158,10.413 38.613,18.933 C47.415,25.221 54.009,33.166 60.214,41.493 L60.214,41.493 Z" id="Shape" fill="#414042" opacity="0.1"></path>
                <path d="M179.229,3.351 C179.223,3.752 179.21,4.147 179.198,4.543 C178.936,11.795 177.98,18.984 176.368,26.065 C176.292,26.384 176.215,26.696 176.139,27.008 C173.399,38.225 169.766,49.805 163.074,59.34 C160.379,63.189 156.822,65.172 152.756,67.313 C151.807,67.81 150.851,68.371 149.869,68.817 C148.302,65.362 146.542,62.227 144.56,59.403 C163.661,46.829 173.303,23.802 178.503,1.63 C178.886,2.115 179.146,2.708 179.229,3.351 L179.229,3.351 Z" id="Shape" fill="#414042" opacity="0.1"></path>
            </g>
        </g>
    </g>
</svg>